# xmcd
#
# Track frame offsets:
#	150
#	17262
#	47059
#	63220
#	92392
#	107591
#	125480
#	143111
#	157940
#	172505
#	213993
#
# Disc length: 3011 seconds
#
# Revision: 0
# Processed by: cddbd v1.5.2PL0 Copyright (c) Steve Scherf et al.
# Submitted via: EasyCDDAExtractor 10.2.0.1
#
DISCID=790bc10b
DTITLE=Van Morrison - Hymns To The Silence [cd1]
DYEAR=1991
DGENRE=Blues
TTITLE0=Professional Jealousy
TTITLE1=I'm Not Feeling It Anymore
TTITLE2=Ordinary Life
TTITLE3=Some Peace Of Mind
TTITLE4=So Complicated
TTITLE5=I Can't Stop Loving You
TTITLE6=Why Must I Always Explain
TTITLE7=Village Idiot
TTITLE8=See Me Through, Pt. 2 (Just A Closer Walk With Thee)
TTITLE9=Take Me Back
TTITLE10=By His Grace
EXTD=
EXTT0=
EXTT1=
EXTT2=
EXTT3=
EXTT4=
EXTT5=
EXTT6=
EXTT7=
EXTT8=
EXTT9=
EXTT10=
PLAYORDER=
